<svg id="Layer_1" data-name="Layer 1" xmlns="http://www.w3.org/2000/svg" viewBox="0 0 300 30.81"><defs><style>.cls-1{fill:#669998;}.cls-2{fill:#fff;}.cls-3,.cls-4{fill:#231f20;}.cls-4{font-size:8.87px;font-family:FuturaStd-Book, Futura Std;}</style></defs><title>RB10008-figure1A</title><circle class="cls-1" cx="11.42" cy="5.63" r="5.63"/><polyline class="cls-1" points="0 29.78 1.84 12.79 21.68 12.79 23.58 29.78"/><polyline class="cls-2" points="5.66 30.03 5.66 20.2 4.14 30.03"/><polyline class="cls-2" points="19.48 30.03 17.96 20.2 17.96 30.03"/><path class="cls-1" d="M637.54,389.72a5.64,5.64,0,0,0,6.78-6.77,5.59,5.59,0,0,0-4.19-4.21,5.64,5.64,0,0,0-6.79,6.78A5.59,5.59,0,0,0,637.54,389.72Z" transform="translate(-601.13 -378.6)"/><polyline class="cls-1" points="25.25 29.78 28.27 12.79 45.9 12.85 49.9 29.78"/><polyline class="cls-2" points="32.15 30.8 31.86 30.8 30.94 21.51 28.74 30.8"/><polyline class="cls-2" points="46.41 30.8 44.24 21.51 42.81 30.8 42.53 30.8"/><circle class="cls-1" cx="62.76" cy="5.63" r="5.63"/><polyline class="cls-1" points="51.34 29.78 53.17 12.79 73.02 12.79 74.91 29.78"/><polyline class="cls-2" points="56.99 30.03 56.99 20.2 55.48 30.03"/><polyline class="cls-2" points="70.82 30.03 69.3 20.2 69.3 30.03"/><path class="cls-1" d="M688.88,389.72a5.64,5.64,0,0,0,6.78-6.77,5.59,5.59,0,0,0-4.19-4.21,5.64,5.64,0,0,0-6.79,6.78A5.59,5.59,0,0,0,688.88,389.72Z" transform="translate(-601.13 -378.6)"/><polyline class="cls-1" points="76.59 29.78 79.61 12.79 97.24 12.85 101.24 29.78"/><polyline class="cls-2" points="83.48 30.8 83.2 30.8 82.28 21.51 80.08 30.8"/><polyline class="cls-2" points="97.75 30.8 95.58 21.51 94.14 30.8 93.87 30.8"/><circle class="cls-1" cx="113.83" cy="5.63" r="5.63"/><polyline class="cls-1" points="102.41 29.78 104.25 12.79 124.09 12.79 125.98 29.78"/><polyline class="cls-2" points="108.06 30.03 108.06 20.2 106.55 30.03"/><polyline class="cls-2" points="121.89 30.03 120.37 20.2 120.37 30.03"/><path class="cls-1" d="M739.95,389.72a5.64,5.64,0,0,0,6.78-6.77,5.59,5.59,0,0,0-4.19-4.21,5.64,5.64,0,0,0-6.79,6.78A5.59,5.59,0,0,0,739.95,389.72Z" transform="translate(-601.13 -378.6)"/><polyline class="cls-1" points="127.66 29.78 130.68 12.79 148.31 12.85 152.31 29.78"/><polyline class="cls-2" points="134.55 30.8 134.27 30.8 133.34 21.51 131.15 30.8"/><polyline class="cls-2" points="148.82 30.8 146.65 21.51 145.22 30.8 144.94 30.8"/><circle class="cls-1" cx="165.17" cy="5.63" r="5.63"/><polyline class="cls-1" points="153.74 29.78 155.58 12.79 175.43 12.79 177.32 29.78"/><polyline class="cls-2" points="159.4 30.03 159.4 20.2 157.88 30.03"/><polyline class="cls-2" points="173.22 30.03 171.71 20.2 171.71 30.03"/><path class="cls-1" d="M791.28,389.72a5.64,5.64,0,0,0,6.78-6.77,5.59,5.59,0,0,0-4.19-4.21,5.64,5.64,0,0,0-6.79,6.78A5.59,5.59,0,0,0,791.28,389.72Z" transform="translate(-601.13 -378.6)"/><polyline class="cls-1" points="179 29.78 182.02 12.79 199.65 12.85 203.64 29.78"/><polyline class="cls-2" points="185.89 30.8 185.61 30.8 184.68 21.51 182.48 30.8"/><polyline class="cls-2" points="200.16 30.8 197.98 21.51 196.55 30.8 196.28 30.8"/><circle class="cls-1" cx="216.56" cy="5.63" r="5.63"/><polyline class="cls-1" points="205.14 29.78 206.98 12.79 226.82 12.79 228.72 29.78"/><polyline class="cls-3" points="225.21 29.78 225.21 12.79 226.82 12.79 228.72 29.78"/><polyline class="cls-2" points="210.8 30.03 210.8 20.2 209.28 30.03"/><polyline class="cls-2" points="224.62 30.03 223.1 20.2 223.1 30.03"/><path class="cls-3" d="M842.68,389.72a5.64,5.64,0,0,0,6.78-6.77,5.59,5.59,0,0,0-4.19-4.21,5.64,5.64,0,0,0-6.79,6.78A5.59,5.59,0,0,0,842.68,389.72Z" transform="translate(-601.13 -378.6)"/><polyline class="cls-3" points="230.4 29.78 233.41 12.79 251.04 12.85 255.04 29.78"/><polyline class="cls-2" points="237.29 30.8 237 30.8 236.08 21.51 233.88 30.8"/><polyline class="cls-2" points="251.55 30.8 249.38 21.51 247.95 30.8 247.67 30.8"/><text class="cls-4" transform="translate(256.95 21.93)">stayed well</text></svg>